<?xml version="1.0" encoding="utf-8"?>
<!-- Generator: Adobe Illustrator 16.0.0, SVG Export Plug-In . SVG Version: 6.00 Build 0)  -->
<!DOCTYPE svg PUBLIC "-//W3C//DTD SVG 1.1//EN" "http://www.w3.org/Graphics/SVG/1.1/DTD/svg11.dtd">
<svg version="1.1" id="Layer_1" xmlns="http://www.w3.org/2000/svg" xmlns:xlink="http://www.w3.org/1999/xlink" x="0px" y="0px"
	 width="600px" height="600px" viewBox="0 0 600 600" enable-background="new 0 0 600 600" xml:space="preserve">
<linearGradient id="SVGID_1_" gradientUnits="userSpaceOnUse" x1="415.4883" y1="239.0459" x2="846.5158" y2="-149.0527" gradientTransform="matrix(1 0 0 -1 -331 345)">
	<stop  offset="0" style="stop-color:#260AD4"/>
	<stop  offset="1" style="stop-color:#A600E4"/>
</linearGradient>
<path fill="url(#SVGID_1_)" d="M300,10C139.843,10,10,139.843,10,300c0,160.173,129.843,290,290,290c160.162,0,290-129.827,290-290
	C590,139.843,460.162,10,300,10z M212.294,449.69c-21.044,0-42.091,0-63.134,0c49.108-103.692,98.222-207.4,147.329-311.061
	c0.003,0.002,0.021,0.004,0.024,0.006l35.031,70.224C291.791,289.125,252.048,369.396,212.294,449.69z M383.031,449.692
	c-7.808-17.944-15.595-35.89-23.391-53.801c-19.484,0-38.983,0-58.47,0h-1.17l1.17-2.33c20.261-42.121,40.535-84.214,60.798-126.303
	c29.624,60.786,59.259,121.612,88.871,182.433C428.238,449.692,405.634,449.692,383.031,449.692z"/>
<title>Square Avatar 02</title>
<desc>Created with Sketch.</desc>
</svg>
